<svg xmlns="http://www.w3.org/2000/svg" xmlns:xlink="http://www.w3.org/1999/xlink" width="241.929" height="156.918" viewBox="0 0 241.929 156.918"><defs><style>.a{opacity:0.88;}.b,.c,.d{fill:#00485a;}.b{opacity:0.12;}.c{opacity:0.51;}.e{fill:#f16b6f;}.f{filter:url(#k);}.g{filter:url(#i);}.h{filter:url(#g);}.i{filter:url(#e);}.j{filter:url(#c);}.k{filter:url(#a);}</style><filter id="a" x="118.185" y="16.587" width="123.744" height="123.744" filterUnits="userSpaceOnUse"><feOffset dy="3" input="SourceAlpha"/><feGaussianBlur stdDeviation="3" result="b"/><feFlood flood-opacity="0.361"/><feComposite operator="in" in2="b"/><feComposite in="SourceGraphic"/></filter><filter id="c" x="0" y="16.587" width="123.744" height="123.744" filterUnits="userSpaceOnUse"><feOffset dy="3" input="SourceAlpha"/><feGaussianBlur stdDeviation="3" result="d"/><feFlood flood-opacity="0.361"/><feComposite operator="in" in2="d"/><feComposite in="SourceGraphic"/></filter><filter id="e" x="80.863" y="8.294" width="140.331" height="140.331" filterUnits="userSpaceOnUse"><feOffset dy="3" input="SourceAlpha"/><feGaussianBlur stdDeviation="3" result="f"/><feFlood flood-opacity="0.361"/><feComposite operator="in" in2="f"/><feComposite in="SourceGraphic"/></filter><filter id="g" x="20.734" y="8.294" width="140.331" height="140.331" filterUnits="userSpaceOnUse"><feOffset dy="3" input="SourceAlpha"/><feGaussianBlur stdDeviation="3" result="h"/><feFlood flood-opacity="0.361"/><feComposite operator="in" in2="h"/><feComposite in="SourceGraphic"/></filter><filter id="i" x="43.542" y="0" width="156.918" height="156.918" filterUnits="userSpaceOnUse"><feOffset dy="3" input="SourceAlpha"/><feGaussianBlur stdDeviation="3" result="j"/><feFlood flood-opacity="0.361"/><feComposite operator="in" in2="j"/><feComposite in="SourceGraphic"/></filter><filter id="k" x="96.414" y="38.358" width="71.908" height="82.276" filterUnits="userSpaceOnUse"><feOffset dy="3" input="SourceAlpha"/><feGaussianBlur stdDeviation="3" result="l"/><feFlood flood-opacity="0.161"/><feComposite operator="in" in2="l"/><feComposite in="SourceGraphic"/></filter></defs><g class="a" transform="translate(-235 -181)"><g class="k" transform="matrix(1, 0, 0, 1, 235, 181)"><path class="b" d="M52.872,0a52.872,52.872,0,0,1,52.872,52.872,53.689,53.689,0,0,1-2.8,17.026A52.878,52.878,0,1,1,52.872,0Z" transform="translate(127.18 22.59)"/></g><g class="j" transform="matrix(1, 0, 0, 1, 235, 181)"><path class="b" d="M52.872,0a52.872,52.872,0,0,1,52.872,52.872,53.689,53.689,0,0,1-2.8,17.026A52.878,52.878,0,1,1,52.872,0Z" transform="translate(9 22.59)"/></g><g class="i" transform="matrix(1, 0, 0, 1, 235, 181)"><circle class="c" cx="61.166" cy="61.166" r="61.166" transform="translate(89.86 14.29)"/></g><g class="h" transform="matrix(1, 0, 0, 1, 235, 181)"><circle class="c" cx="61.166" cy="61.166" r="61.166" transform="translate(29.73 14.29)"/></g><g class="g" transform="matrix(1, 0, 0, 1, 235, 181)"><circle class="d" cx="69.459" cy="69.459" r="69.459" transform="translate(52.54 6)"/></g><g class="f" transform="matrix(1, 0, 0, 1, 235, 181)"><path class="e" d="M31.279,1.441a1,1,0,0,1,1.718,0L63.374,52.4a1,1,0,0,1-.859,1.512H1.76A1,1,0,0,1,.9,52.4Z" transform="translate(159.32 44.36) rotate(90)"/></g></g></svg>