<svg xmlns="http://www.w3.org/2000/svg" width="45.23" height="24.671" viewBox="0 0 45.23 24.671"><defs><style>.a{fill:#f16b6f;}</style></defs><path class="a" d="M46.23,10.112a4.124,4.124,0,0,1-4.112,4.112,3.494,3.494,0,0,1-1.049-.144l-7.319,7.3a3.632,3.632,0,0,1,.144,1.069,4.112,4.112,0,0,1-8.224,0,3.632,3.632,0,0,1,.144-1.069l-5.243-5.243a4.043,4.043,0,0,1-2.138,0L9.08,25.511a3.494,3.494,0,0,1,.144,1.049,4.112,4.112,0,1,1-4.112-4.112,3.494,3.494,0,0,1,1.049.144l9.375-9.354a3.632,3.632,0,0,1-.144-1.069,4.112,4.112,0,0,1,8.224,0,3.632,3.632,0,0,1-.144,1.069l5.243,5.243a4.043,4.043,0,0,1,2.138,0l7.3-7.319a3.494,3.494,0,0,1-.144-1.049,4.112,4.112,0,1,1,8.224,0Z" transform="translate(-1 -6)"/></svg>